<svg width="14" height="14" viewBox="0 0 14 14" fill="none" xmlns="http://www.w3.org/2000/svg">
<path d="M5.56641 1.33789C5.27344 1.63086 5.30273 2.07031 5.56641 2.36328L9.11133 5.70312H0.703125C0.292969 5.70312 0 6.02539 0 6.40625V7.34375C0 7.75391 0.292969 8.04688 0.703125 8.04688H9.11133L5.56641 11.416C5.30273 11.709 5.30273 12.1484 5.56641 12.4414L6.21094 13.0859C6.50391 13.3496 6.94336 13.3496 7.20703 13.0859L12.9199 7.37305C13.1836 7.10938 13.1836 6.66992 12.9199 6.37695L7.20703 0.693359C6.94336 0.429688 6.50391 0.429688 6.21094 0.693359L5.56641 1.33789Z" fill="#F36D6F"/>
</svg>
