<svg width="451" height="938" viewBox="0 0 451 938" fill="none" xmlns="http://www.w3.org/2000/svg">
<g opacity="0.3">
<path d="M449.993 469.451C449.018 715.542 344.753 937.377 227.819 937.024C110.885 936.671 -26.0742 715.542 5.64391 469.451C37.362 223.361 110.885 22.7763 227.819 1.87871C344.753 -19.0189 450.969 223.361 449.993 469.451Z" stroke="#6C57DB" stroke-opacity="0.87" stroke-width="0.520151" stroke-linecap="round"/>
<path d="M436.311 461.13C435.538 684.28 340.881 885.395 234.848 885.116C128.814 884.836 8.24832 684.28 33.3843 461.13C58.5204 237.98 128.814 53.7057 234.848 37.1448C340.881 20.5838 437.085 237.98 436.311 461.13Z" stroke="#6C57DB" stroke-opacity="0.87" stroke-width="0.520151" stroke-linecap="round"/>
<path d="M419.115 456.97C418.449 657.18 333.496 837.609 238.363 837.368C143.23 837.127 35.9594 657.18 57.6104 456.97C79.2613 256.76 143.23 90.8367 238.363 76.5719C333.496 62.307 419.781 256.76 419.115 456.97Z" stroke="#6C57DB" stroke-opacity="0.87" stroke-width="0.520151" stroke-linecap="round"/>
<path d="M400.512 454.473C399.914 631.742 324.704 791.5 240.471 791.284C156.239 791.067 60.9824 631.742 80.4303 454.473C99.8781 277.204 156.239 130.476 240.471 117.662C324.704 104.849 401.111 277.204 400.512 454.473Z" stroke="#6C57DB" stroke-opacity="0.87" stroke-width="0.520151" stroke-linecap="round"/>
<path d="M381.207 452.809C380.656 607.137 315.209 746.232 241.877 746.032C168.545 745.833 84.6399 607.137 102.547 452.809C120.454 298.481 168.545 171.384 241.877 159.585C315.209 147.787 381.758 298.481 381.207 452.809Z" stroke="#6C57DB" stroke-opacity="0.87" stroke-width="0.520151" stroke-linecap="round"/>
<path d="M361.5 451.62C360.985 583.008 305.312 701.443 242.881 701.256C180.451 701.07 107.505 583.008 124.263 451.62C141.02 320.233 180.451 213.024 242.881 201.984C305.312 190.943 362.016 320.233 361.5 451.62Z" stroke="#6C57DB" stroke-opacity="0.87" stroke-width="0.520151" stroke-linecap="round"/>
<path d="M341.542 450.729C341.054 559.175 295.165 656.954 243.635 656.778C192.104 656.601 129.868 559.175 145.727 450.729C161.586 342.282 192.104 255.128 243.635 244.68C295.165 234.231 342.03 342.282 341.542 450.729Z" stroke="#6C57DB" stroke-opacity="0.87" stroke-width="0.520151" stroke-linecap="round"/>
<path d="M321.416 450.035C320.951 535.541 284.85 612.665 244.22 612.497C203.591 612.328 151.891 535.541 167.024 450.035C182.157 364.529 203.591 297.544 244.22 287.574C284.85 277.603 321.882 364.529 321.416 450.035Z" stroke="#6C57DB" stroke-opacity="0.87" stroke-width="0.520151" stroke-linecap="round"/>
<path d="M301.174 449.48C300.727 512.046 274.418 568.517 244.689 568.355C214.96 568.193 173.672 512.046 188.204 449.48C202.736 386.915 214.96 340.18 244.689 330.606C274.418 321.032 301.621 386.915 301.174 449.48Z" stroke="#6C57DB" stroke-opacity="0.87" stroke-width="0.520151" stroke-linecap="round"/>
<path d="M280.846 449.026C280.415 488.651 263.901 524.469 245.072 524.313C226.244 524.157 195.275 488.651 209.298 449.026C223.321 409.401 226.244 382.978 245.072 373.739C263.901 364.5 281.277 409.401 280.846 449.026Z" stroke="#F36D6F" stroke-width="0.520151" stroke-linecap="round"/>
</g>
</svg>
