<svg width="404" height="502" viewBox="0 0 404 502" fill="none" xmlns="http://www.w3.org/2000/svg">
<path d="M346 389.255V431C346 436.247 341.747 440.5 336.5 440.5H293.5C288.253 440.5 284 436.247 284 431V389.255C284 384.008 288.253 379.755 293.5 379.755H312C317.799 379.755 322.5 375.054 322.5 369.255V330C322.5 324.753 326.753 320.5 332 320.5H393.5C398.747 320.5 403 324.753 403 330V369.255C403 374.502 398.747 378.755 393.5 378.755H356.5C350.701 378.755 346 383.456 346 389.255Z" stroke="#E6E6E6"/>
<rect x="183" y="379.5" width="101" height="61" rx="9.5" stroke="#E6E6E6"/>
<path d="M63.0911 450.248L62.7536 491.078C62.7105 496.294 58.47 500.5 53.254 500.5H10C4.7533 500.5 0.5 496.247 0.5 491V448.831C0.5 443.584 4.75329 439.331 10 439.331H51.6676C57.4666 439.331 62.1676 434.63 62.1676 428.831V329C62.1676 323.753 66.4209 319.5 71.6676 319.5H173.499C178.745 319.5 182.999 323.753 182.999 329L183 430.335C183 435.582 178.747 439.835 173.5 439.835H73.5907C67.8256 439.835 63.1387 444.483 63.0911 450.248Z" stroke="#E6E6E6"/>
<path d="M124.591 50.7516L124.254 9.92154C124.211 4.70564 119.97 0.500031 114.754 0.500031H71.5C66.2533 0.500031 62 4.75333 62 10V52.169C62 57.4157 66.2533 61.669 71.5 61.669H112.666C118.465 61.669 123.166 66.37 123.166 72.169V176.507C123.166 181.754 127.42 186.007 132.666 186.007H235.038C240.27 186.007 244.517 181.777 244.538 176.545L244.96 70.7027C244.981 65.4413 240.722 61.1649 235.46 61.1649H135.091C129.326 61.1649 124.639 56.5166 124.591 50.7516Z" stroke="#E6E6E6"/>
<rect x="361" y="400.007" width="25" height="25" rx="5.5" stroke="#E6E6E6"/>
<rect x="123" y="62.0068" width="124" height="61" rx="9.5" transform="rotate(90 123 62.0068)" stroke="#E6E6E6"/>
<rect x="123" y="186.007" width="59" height="61" rx="9.5" transform="rotate(90 123 186.007)" stroke="#E6E6E6"/>
<rect x="402" y="123.007" width="59" height="61" rx="9.5" transform="rotate(-180 402 123.007)" stroke="#E6E6E6"/>
<rect x="343" y="215.007" width="98" height="178" rx="9.5" transform="rotate(-180 343 215.007)" stroke="#E6E6E6"/>
<rect x="402" y="240.007" width="59" height="117" rx="9.5" transform="rotate(-180 402 240.007)" stroke="#E6E6E6"/>
<rect x="161" y="440.5" width="61" height="61" rx="9.5" stroke="#E6E6E6"/>
<rect x="284" y="440.5" width="61" height="61" rx="9.5" stroke="#E6E6E6"/>
</svg>
