<svg width="451" height="453" viewBox="0 0 451 453" fill="none" xmlns="http://www.w3.org/2000/svg">
<g opacity="0.3">
<path d="M449.993 226.595C449.018 345.119 344.753 451.961 227.819 451.791C110.885 451.621 -26.0742 345.119 5.64391 226.595C37.362 108.071 110.885 11.4636 227.819 1.39873C344.753 -8.66616 450.969 108.071 449.993 226.595Z" stroke="#6C57DB" stroke-opacity="0.87" stroke-width="0.520151" stroke-linecap="round"/>
<path d="M436.311 222.587C435.538 330.062 340.881 426.925 234.848 426.79C128.815 426.656 8.24845 330.062 33.3845 222.587C58.5205 115.112 128.815 26.36 234.848 18.3838C340.881 10.4075 437.085 115.112 436.311 222.587Z" stroke="#6C57DB" stroke-opacity="0.87" stroke-width="0.520151" stroke-linecap="round"/>
<path d="M419.115 220.583C418.449 317.01 333.496 403.91 238.363 403.794C143.23 403.678 35.9594 317.01 57.6104 220.583C79.2613 124.157 143.23 44.2434 238.363 37.373C333.496 30.5027 419.781 124.157 419.115 220.583Z" stroke="#6C57DB" stroke-opacity="0.87" stroke-width="0.520151" stroke-linecap="round"/>
<path d="M400.512 219.381C399.914 304.759 324.704 381.703 240.471 381.598C156.239 381.494 60.9824 304.759 80.4303 219.381C99.8781 134.003 156.239 63.3346 240.471 57.1633C324.704 50.9921 401.111 134.003 400.512 219.381Z" stroke="#6C57DB" stroke-opacity="0.87" stroke-width="0.520151" stroke-linecap="round"/>
<path d="M381.207 218.579C380.656 292.908 315.209 359.9 241.877 359.804C168.545 359.708 84.6399 292.908 102.547 218.579C120.454 144.251 168.545 83.0371 241.877 77.3547C315.209 71.6723 381.758 144.251 381.207 218.579Z" stroke="#6C57DB" stroke-opacity="0.87" stroke-width="0.520151" stroke-linecap="round"/>
<path d="M361.5 218.007C360.985 281.287 305.312 338.328 242.882 338.239C180.451 338.149 107.505 281.287 124.263 218.007C141.02 154.727 180.451 103.092 242.882 97.775C305.312 92.4575 362.016 154.727 361.5 218.007Z" stroke="#6C57DB" stroke-opacity="0.87" stroke-width="0.520151" stroke-linecap="round"/>
<path d="M341.542 217.577C341.054 269.808 295.165 316.901 243.635 316.816C192.104 316.731 129.868 269.808 145.727 217.577C161.586 165.346 192.104 123.371 243.635 118.338C295.165 113.306 342.03 165.346 341.542 217.577Z" stroke="#6C57DB" stroke-opacity="0.87" stroke-width="0.520151" stroke-linecap="round"/>
<path d="M321.416 217.244C320.951 258.426 284.85 295.571 244.22 295.49C203.591 295.409 151.891 258.426 167.024 217.244C182.157 176.061 203.591 143.8 244.22 138.997C284.85 134.195 321.882 176.061 321.416 217.244Z" stroke="#6C57DB" stroke-opacity="0.87" stroke-width="0.520151" stroke-linecap="round"/>
<path d="M301.174 216.976C300.727 247.11 274.418 274.307 244.689 274.229C214.96 274.152 173.672 247.11 188.204 216.976C202.736 186.843 214.96 164.334 244.689 159.723C274.418 155.112 301.621 186.843 301.174 216.976Z" stroke="#6C57DB" stroke-opacity="0.87" stroke-width="0.520151" stroke-linecap="round"/>
<path d="M280.846 216.758C280.415 235.842 263.901 253.093 245.072 253.018C226.244 252.943 195.275 235.842 209.298 216.758C223.321 197.673 226.244 184.947 245.072 180.497C263.901 176.047 281.278 197.673 280.846 216.758Z" stroke="#F36D6F" stroke-width="0.520151" stroke-linecap="round"/>
</g>
</svg>
