<svg width="25" height="24" viewBox="0 0 25 24" fill="none" xmlns="http://www.w3.org/2000/svg">
<path d="M1.91785 13.7131H19.7078L14.2628 21.1867C14.1368 21.36 14.0418 21.56 13.9834 21.7753C13.925 21.9905 13.9042 22.2169 13.9223 22.4413C13.9589 22.8946 14.1515 23.3126 14.4578 23.6036C14.7642 23.8946 15.1591 24.0345 15.5557 23.9927C15.9524 23.951 16.3182 23.7308 16.5728 23.3808L24.0728 13.096C24.1233 13.0142 24.1684 12.9282 24.2078 12.8389C24.2078 12.7531 24.2828 12.7017 24.3128 12.616C24.3808 12.4195 24.4164 12.2103 24.4178 11.9989C24.4164 11.7876 24.3808 11.5784 24.3128 11.3818C24.3128 11.2961 24.2378 11.2447 24.2078 11.159C24.1684 11.0696 24.1233 10.9837 24.0728 10.9019L16.5728 0.617091C16.4318 0.423595 16.2552 0.267986 16.0556 0.161331C15.856 0.0546758 15.6382 -0.000405687 15.4178 3.27461e-06C15.0674 -0.000779249 14.7277 0.138709 14.4578 0.394254C14.306 0.538154 14.1804 0.714881 14.0884 0.914316C13.9963 1.11375 13.9397 1.33197 13.9215 1.55648C13.9034 1.781 13.9243 2.00739 13.9828 2.22269C14.0414 2.43799 14.1365 2.63797 14.2628 2.81118L19.7078 10.2848H1.91785C1.52002 10.2848 1.13849 10.4654 0.857187 10.7869C0.575882 11.1083 0.417847 11.5443 0.417847 11.9989C0.417847 12.4535 0.575882 12.8895 0.857187 13.211C1.13849 13.5325 1.52002 13.7131 1.91785 13.7131Z" fill="black"/>
</svg>
