<svg width="1139" height="378" viewBox="0 0 1139 378" fill="none" xmlns="http://www.w3.org/2000/svg">
<g clip-path="url(#clip0_50_390)">
<rect width="1139" height="377.5" rx="16" fill="#FFEFE6"/>
<rect opacity="0.5" x="-104.5" y="-66.5488" width="207" height="207" rx="103.5" fill="#FDAE7C"/>
<rect opacity="0.1" x="-144" y="197.123" width="287" height="287" rx="143.5" fill="#FDAE7C"/>
<rect opacity="0.1" x="48" y="315.123" width="189" height="189" rx="94.5" fill="#FDAE7C"/>
<rect opacity="0.1" x="1022" y="-71.8774" width="189" height="189" rx="94.5" fill="#FDAE7C"/>
<rect opacity="0.3" x="968" y="208.123" width="341" height="341" rx="170.5" fill="#FDAE7C"/>
<rect opacity="0.3" x="863" y="273.123" width="211" height="211" rx="105.5" fill="#FDAE7C"/>
<rect opacity="0.2" x="-104" y="-276.877" width="365" height="365" rx="182.5" fill="#FDAE7C"/>
<path d="M234.807 105.49C233.943 103.826 232.743 102.578 231.207 101.746C229.671 100.882 227.895 100.45 225.879 100.45C223.671 100.45 221.703 100.946 219.975 101.938C218.247 102.93 216.887 104.338 215.895 106.162C214.935 107.986 214.455 110.098 214.455 112.498C214.455 114.898 214.935 117.026 215.895 118.882C216.887 120.706 218.247 122.114 219.975 123.106C221.703 124.098 223.671 124.594 225.879 124.594C228.855 124.594 231.271 123.762 233.127 122.098C234.983 120.434 236.119 118.178 236.535 115.33H224.007V110.962H242.391V115.234C242.039 117.826 241.111 120.21 239.607 122.386C238.135 124.562 236.199 126.306 233.799 127.618C231.431 128.898 228.791 129.538 225.879 129.538C222.743 129.538 219.879 128.818 217.287 127.378C214.695 125.906 212.631 123.874 211.095 121.282C209.591 118.69 208.839 115.762 208.839 112.498C208.839 109.234 209.591 106.306 211.095 103.714C212.631 101.122 214.695 99.106 217.287 97.666C219.911 96.194 222.775 95.458 225.879 95.458C229.431 95.458 232.583 96.338 235.335 98.098C238.119 99.826 240.135 102.29 241.383 105.49H234.807ZM272.028 115.378C272.028 116.37 271.964 117.266 271.836 118.066H251.628C251.788 120.178 252.572 121.874 253.98 123.154C255.388 124.434 257.116 125.074 259.164 125.074C262.108 125.074 264.188 123.842 265.404 121.378H271.307C270.508 123.81 269.052 125.81 266.94 127.378C264.86 128.914 262.268 129.682 259.164 129.682C256.636 129.682 254.364 129.122 252.348 128.002C250.364 126.85 248.796 125.25 247.644 123.202C246.524 121.122 245.964 118.722 245.964 116.002C245.964 113.282 246.508 110.898 247.596 108.85C248.716 106.77 250.268 105.17 252.252 104.05C254.268 102.93 256.572 102.37 259.164 102.37C261.66 102.37 263.884 102.914 265.836 104.002C267.788 105.09 269.308 106.626 270.396 108.61C271.484 110.562 272.028 112.818 272.028 115.378ZM266.316 113.65C266.284 111.634 265.564 110.018 264.156 108.802C262.748 107.586 261.004 106.978 258.924 106.978C257.036 106.978 255.42 107.586 254.076 108.802C252.732 109.986 251.932 111.602 251.676 113.65H266.316ZM283.797 107.266V121.906C283.797 122.898 284.021 123.618 284.469 124.066C284.949 124.482 285.749 124.69 286.869 124.69H290.229V129.25H285.909C283.445 129.25 281.557 128.674 280.245 127.522C278.933 126.37 278.277 124.498 278.277 121.906V107.266H275.157V102.802H278.277V96.226H283.797V102.802H290.229V107.266H283.797ZM331.549 102.802L315.325 141.682H309.661L315.037 128.818L304.621 102.802H310.717L318.157 122.962L325.885 102.802H331.549ZM347.15 129.682C344.654 129.682 342.398 129.122 340.382 128.002C338.366 126.85 336.782 125.25 335.63 123.202C334.478 121.122 333.902 118.722 333.902 116.002C333.902 113.314 334.494 110.93 335.678 108.85C336.862 106.77 338.478 105.17 340.526 104.05C342.574 102.93 344.862 102.37 347.39 102.37C349.918 102.37 352.206 102.93 354.254 104.05C356.302 105.17 357.918 106.77 359.102 108.85C360.286 110.93 360.878 113.314 360.878 116.002C360.878 118.69 360.27 121.074 359.054 123.154C357.838 125.234 356.174 126.85 354.062 128.002C351.982 129.122 349.678 129.682 347.15 129.682ZM347.15 124.93C348.558 124.93 349.87 124.594 351.086 123.922C352.334 123.25 353.342 122.242 354.11 120.898C354.878 119.554 355.262 117.922 355.262 116.002C355.262 114.082 354.894 112.466 354.158 111.154C353.422 109.81 352.446 108.802 351.23 108.13C350.014 107.458 348.702 107.122 347.294 107.122C345.886 107.122 344.574 107.458 343.358 108.13C342.174 108.802 341.23 109.81 340.526 111.154C339.822 112.466 339.47 114.082 339.47 116.002C339.47 118.85 340.19 121.058 341.63 122.626C343.102 124.162 344.942 124.93 347.15 124.93ZM390.24 102.802V129.25H384.768V126.13C383.904 127.218 382.768 128.082 381.36 128.722C379.984 129.33 378.512 129.634 376.944 129.634C374.864 129.634 372.992 129.202 371.328 128.338C369.696 127.474 368.4 126.194 367.44 124.498C366.512 122.802 366.048 120.754 366.048 118.354V102.802H371.472V117.538C371.472 119.906 372.064 121.73 373.248 123.01C374.432 124.258 376.048 124.882 378.096 124.882C380.144 124.882 381.76 124.258 382.944 123.01C384.16 121.73 384.768 119.906 384.768 117.538V102.802H390.24ZM402.931 106.642C403.731 105.298 404.787 104.258 406.099 103.522C407.443 102.754 409.027 102.37 410.851 102.37V108.034H409.459C407.315 108.034 405.683 108.578 404.563 109.666C403.475 110.754 402.931 112.642 402.931 115.33V129.25H397.459V102.802H402.931V106.642ZM433.822 106.69C434.75 105.474 436.014 104.45 437.614 103.618C439.214 102.786 441.022 102.37 443.038 102.37C445.342 102.37 447.438 102.946 449.326 104.098C451.246 105.218 452.75 106.802 453.838 108.85C454.926 110.898 455.47 113.25 455.47 115.906C455.47 118.562 454.926 120.946 453.838 123.058C452.75 125.138 451.246 126.77 449.326 127.954C447.438 129.106 445.342 129.682 443.038 129.682C441.022 129.682 439.23 129.282 437.662 128.482C436.094 127.65 434.814 126.626 433.822 125.41V141.826H428.35V102.802H433.822V106.69ZM449.902 115.906C449.902 114.082 449.518 112.514 448.75 111.202C448.014 109.858 447.022 108.85 445.774 108.178C444.558 107.474 443.246 107.122 441.838 107.122C440.462 107.122 439.15 107.474 437.902 108.178C436.686 108.882 435.694 109.906 434.926 111.25C434.19 112.594 433.822 114.178 433.822 116.002C433.822 117.826 434.19 119.426 434.926 120.802C435.694 122.146 436.686 123.17 437.902 123.874C439.15 124.578 440.462 124.93 441.838 124.93C443.246 124.93 444.558 124.578 445.774 123.874C447.022 123.138 448.014 122.082 448.75 120.706C449.518 119.33 449.902 117.73 449.902 115.906ZM466.353 106.642C467.153 105.298 468.209 104.258 469.521 103.522C470.865 102.754 472.449 102.37 474.273 102.37V108.034H472.881C470.737 108.034 469.105 108.578 467.985 109.666C466.897 110.754 466.353 112.642 466.353 115.33V129.25H460.881V102.802H466.353V106.642ZM490.775 129.682C488.279 129.682 486.023 129.122 484.007 128.002C481.991 126.85 480.407 125.25 479.255 123.202C478.103 121.122 477.527 118.722 477.527 116.002C477.527 113.314 478.119 110.93 479.303 108.85C480.487 106.77 482.103 105.17 484.151 104.05C486.199 102.93 488.487 102.37 491.015 102.37C493.543 102.37 495.831 102.93 497.879 104.05C499.927 105.17 501.543 106.77 502.727 108.85C503.911 110.93 504.503 113.314 504.503 116.002C504.503 118.69 503.895 121.074 502.679 123.154C501.463 125.234 499.799 126.85 497.687 128.002C495.607 129.122 493.303 129.682 490.775 129.682ZM490.775 124.93C492.183 124.93 493.495 124.594 494.711 123.922C495.959 123.25 496.967 122.242 497.735 120.898C498.503 119.554 498.887 117.922 498.887 116.002C498.887 114.082 498.519 112.466 497.783 111.154C497.047 109.81 496.071 108.802 494.855 108.13C493.639 107.458 492.327 107.122 490.919 107.122C489.511 107.122 488.199 107.458 486.983 108.13C485.799 108.802 484.855 109.81 484.151 111.154C483.447 112.466 483.095 114.082 483.095 116.002C483.095 118.85 483.815 121.058 485.255 122.626C486.727 124.162 488.567 124.93 490.775 124.93ZM521.001 107.266H516.105V129.25H510.585V107.266H507.465V102.802H510.585V100.93C510.585 97.89 511.385 95.682 512.985 94.306C514.617 92.898 517.161 92.194 520.617 92.194V96.754C518.953 96.754 517.785 97.074 517.113 97.714C516.441 98.322 516.105 99.394 516.105 100.93V102.802H521.001V107.266ZM550.09 115.378C550.09 116.37 550.026 117.266 549.898 118.066H529.69C529.85 120.178 530.634 121.874 532.042 123.154C533.45 124.434 535.178 125.074 537.226 125.074C540.17 125.074 542.25 123.842 543.466 121.378H549.37C548.57 123.81 547.114 125.81 545.002 127.378C542.922 128.914 540.33 129.682 537.226 129.682C534.698 129.682 532.426 129.122 530.41 128.002C528.426 126.85 526.858 125.25 525.706 123.202C524.586 121.122 524.026 118.722 524.026 116.002C524.026 113.282 524.57 110.898 525.658 108.85C526.778 106.77 528.33 105.17 530.314 104.05C532.33 102.93 534.634 102.37 537.226 102.37C539.722 102.37 541.946 102.914 543.898 104.002C545.85 105.09 547.37 106.626 548.458 108.61C549.546 110.562 550.09 112.818 550.09 115.378ZM544.378 113.65C544.346 111.634 543.626 110.018 542.218 108.802C540.81 107.586 539.066 106.978 536.986 106.978C535.098 106.978 533.482 107.586 532.138 108.802C530.794 109.986 529.994 111.602 529.738 113.65H544.378ZM565.075 129.682C562.995 129.682 561.123 129.314 559.459 128.578C557.827 127.81 556.531 126.786 555.571 125.506C554.611 124.194 554.099 122.738 554.035 121.138H559.699C559.795 122.258 560.323 123.202 561.283 123.97C562.275 124.706 563.507 125.074 564.979 125.074C566.515 125.074 567.699 124.786 568.531 124.21C569.395 123.602 569.827 122.834 569.827 121.906C569.827 120.914 569.347 120.178 568.387 119.698C567.459 119.218 565.971 118.69 563.923 118.114C561.939 117.57 560.323 117.042 559.075 116.53C557.827 116.018 556.739 115.234 555.811 114.178C554.915 113.122 554.467 111.73 554.467 110.002C554.467 108.594 554.883 107.314 555.715 106.162C556.547 104.978 557.731 104.05 559.267 103.378C560.835 102.706 562.627 102.37 564.643 102.37C567.651 102.37 570.067 103.138 571.891 104.674C573.747 106.178 574.739 108.242 574.867 110.866H569.395C569.299 109.682 568.819 108.738 567.955 108.034C567.091 107.33 565.923 106.978 564.451 106.978C563.011 106.978 561.907 107.25 561.139 107.794C560.371 108.338 559.987 109.058 559.987 109.954C559.987 110.658 560.243 111.25 560.755 111.73C561.267 112.21 561.891 112.594 562.627 112.882C563.363 113.138 564.451 113.474 565.891 113.89C567.811 114.402 569.379 114.93 570.595 115.474C571.843 115.986 572.915 116.754 573.811 117.778C574.707 118.802 575.171 120.162 575.203 121.858C575.203 123.362 574.787 124.706 573.955 125.89C573.123 127.074 571.939 128.002 570.403 128.674C568.899 129.346 567.123 129.682 565.075 129.682ZM590.716 129.682C588.636 129.682 586.764 129.314 585.1 128.578C583.468 127.81 582.172 126.786 581.212 125.506C580.252 124.194 579.74 122.738 579.676 121.138H585.34C585.436 122.258 585.964 123.202 586.924 123.97C587.916 124.706 589.148 125.074 590.62 125.074C592.156 125.074 593.34 124.786 594.172 124.21C595.036 123.602 595.468 122.834 595.468 121.906C595.468 120.914 594.988 120.178 594.028 119.698C593.1 119.218 591.612 118.69 589.564 118.114C587.58 117.57 585.964 117.042 584.716 116.53C583.468 116.018 582.38 115.234 581.452 114.178C580.556 113.122 580.108 111.73 580.108 110.002C580.108 108.594 580.524 107.314 581.356 106.162C582.188 104.978 583.372 104.05 584.908 103.378C586.476 102.706 588.268 102.37 590.284 102.37C593.292 102.37 595.708 103.138 597.532 104.674C599.388 106.178 600.38 108.242 600.508 110.866H595.036C594.94 109.682 594.46 108.738 593.596 108.034C592.732 107.33 591.564 106.978 590.092 106.978C588.652 106.978 587.548 107.25 586.78 107.794C586.012 108.338 585.628 109.058 585.628 109.954C585.628 110.658 585.884 111.25 586.396 111.73C586.908 112.21 587.532 112.594 588.268 112.882C589.004 113.138 590.092 113.474 591.532 113.89C593.452 114.402 595.02 114.93 596.236 115.474C597.484 115.986 598.556 116.754 599.452 117.778C600.348 118.802 600.812 120.162 600.844 121.858C600.844 123.362 600.428 124.706 599.596 125.89C598.764 127.074 597.58 128.002 596.044 128.674C594.54 129.346 592.764 129.682 590.716 129.682ZM609.54 99.298C608.548 99.298 607.716 98.962 607.044 98.29C606.372 97.618 606.036 96.786 606.036 95.794C606.036 94.802 606.372 93.97 607.044 93.298C607.716 92.626 608.548 92.29 609.54 92.29C610.5 92.29 611.316 92.626 611.988 93.298C612.66 93.97 612.996 94.802 612.996 95.794C612.996 96.786 612.66 97.618 611.988 98.29C611.316 98.962 610.5 99.298 609.54 99.298ZM612.228 102.802V129.25H606.756V102.802H612.228ZM630.885 129.682C628.389 129.682 626.133 129.122 624.117 128.002C622.101 126.85 620.517 125.25 619.365 123.202C618.213 121.122 617.637 118.722 617.637 116.002C617.637 113.314 618.229 110.93 619.413 108.85C620.597 106.77 622.213 105.17 624.261 104.05C626.309 102.93 628.597 102.37 631.125 102.37C633.653 102.37 635.941 102.93 637.989 104.05C640.037 105.17 641.653 106.77 642.837 108.85C644.021 110.93 644.613 113.314 644.613 116.002C644.613 118.69 644.005 121.074 642.789 123.154C641.573 125.234 639.909 126.85 637.797 128.002C635.717 129.122 633.413 129.682 630.885 129.682ZM630.885 124.93C632.293 124.93 633.605 124.594 634.821 123.922C636.069 123.25 637.077 122.242 637.845 120.898C638.613 119.554 638.997 117.922 638.997 116.002C638.997 114.082 638.629 112.466 637.893 111.154C637.157 109.81 636.181 108.802 634.965 108.13C633.749 107.458 632.437 107.122 631.029 107.122C629.621 107.122 628.309 107.458 627.093 108.13C625.909 108.802 624.965 109.81 624.261 111.154C623.557 112.466 623.205 114.082 623.205 116.002C623.205 118.85 623.925 121.058 625.365 122.626C626.837 124.162 628.677 124.93 630.885 124.93ZM663.366 102.37C665.446 102.37 667.302 102.802 668.934 103.666C670.598 104.53 671.894 105.81 672.822 107.506C673.75 109.202 674.214 111.25 674.214 113.65V129.25H668.79V114.466C668.79 112.098 668.198 110.29 667.014 109.042C665.83 107.762 664.214 107.122 662.166 107.122C660.118 107.122 658.486 107.762 657.27 109.042C656.086 110.29 655.494 112.098 655.494 114.466V129.25H650.022V102.802H655.494V105.826C656.39 104.738 657.526 103.89 658.902 103.282C660.31 102.674 661.798 102.37 663.366 102.37ZM679.37 115.906C679.37 113.25 679.914 110.898 681.002 108.85C682.122 106.802 683.626 105.218 685.514 104.098C687.434 102.946 689.546 102.37 691.85 102.37C693.93 102.37 695.738 102.786 697.274 103.618C698.842 104.418 700.09 105.426 701.018 106.642V102.802H706.538V129.25H701.018V125.314C700.09 126.562 698.826 127.602 697.226 128.434C695.626 129.266 693.802 129.682 691.754 129.682C689.482 129.682 687.402 129.106 685.514 127.954C683.626 126.77 682.122 125.138 681.002 123.058C679.914 120.946 679.37 118.562 679.37 115.906ZM701.018 116.002C701.018 114.178 700.634 112.594 699.866 111.25C699.13 109.906 698.154 108.882 696.938 108.178C695.722 107.474 694.41 107.122 693.002 107.122C691.594 107.122 690.282 107.474 689.066 108.178C687.85 108.85 686.858 109.858 686.09 111.202C685.354 112.514 684.986 114.082 684.986 115.906C684.986 117.73 685.354 119.33 686.09 120.706C686.858 122.082 687.85 123.138 689.066 123.874C690.314 124.578 691.626 124.93 693.002 124.93C694.41 124.93 695.722 124.578 696.938 123.874C698.154 123.17 699.13 122.146 699.866 120.802C700.634 119.426 701.018 117.826 701.018 116.002ZM719.197 93.73V129.25H713.725V93.73H719.197ZM744.322 106.69C745.25 105.474 746.514 104.45 748.114 103.618C749.714 102.786 751.522 102.37 753.538 102.37C755.842 102.37 757.938 102.946 759.826 104.098C761.746 105.218 763.25 106.802 764.338 108.85C765.426 110.898 765.97 113.25 765.97 115.906C765.97 118.562 765.426 120.946 764.338 123.058C763.25 125.138 761.746 126.77 759.826 127.954C757.938 129.106 755.842 129.682 753.538 129.682C751.522 129.682 749.73 129.282 748.162 128.482C746.594 127.65 745.314 126.626 744.322 125.41V141.826H738.85V102.802H744.322V106.69ZM760.402 115.906C760.402 114.082 760.018 112.514 759.25 111.202C758.514 109.858 757.522 108.85 756.274 108.178C755.058 107.474 753.746 107.122 752.338 107.122C750.962 107.122 749.65 107.474 748.402 108.178C747.186 108.882 746.194 109.906 745.426 111.25C744.69 112.594 744.322 114.178 744.322 116.002C744.322 117.826 744.69 119.426 745.426 120.802C746.194 122.146 747.186 123.17 748.402 123.874C749.65 124.578 750.962 124.93 752.338 124.93C753.746 124.93 755.058 124.578 756.274 123.874C757.522 123.138 758.514 122.082 759.25 120.706C760.018 119.33 760.402 117.73 760.402 115.906ZM774.165 99.298C773.173 99.298 772.341 98.962 771.669 98.29C770.997 97.618 770.661 96.786 770.661 95.794C770.661 94.802 770.997 93.97 771.669 93.298C772.341 92.626 773.173 92.29 774.165 92.29C775.125 92.29 775.941 92.626 776.613 93.298C777.285 93.97 777.621 94.802 777.621 95.794C777.621 96.786 777.285 97.618 776.613 98.29C775.941 98.962 775.125 99.298 774.165 99.298ZM776.853 102.802V129.25H771.381V102.802H776.853ZM782.214 116.002C782.214 113.282 782.758 110.898 783.846 108.85C784.966 106.77 786.502 105.17 788.454 104.05C790.406 102.93 792.646 102.37 795.174 102.37C798.374 102.37 801.014 103.138 803.094 104.674C805.206 106.178 806.63 108.338 807.366 111.154H801.462C800.982 109.842 800.214 108.818 799.158 108.082C798.102 107.346 796.774 106.978 795.174 106.978C792.934 106.978 791.142 107.778 789.798 109.378C788.486 110.946 787.83 113.154 787.83 116.002C787.83 118.85 788.486 121.074 789.798 122.674C791.142 124.274 792.934 125.074 795.174 125.074C798.342 125.074 800.438 123.682 801.462 120.898H807.366C806.598 123.586 805.158 125.73 803.046 127.33C800.934 128.898 798.31 129.682 795.174 129.682C792.646 129.682 790.406 129.122 788.454 128.002C786.502 126.85 784.966 125.25 783.846 123.202C782.758 121.122 782.214 118.722 782.214 116.002ZM819.203 107.266V121.906C819.203 122.898 819.427 123.618 819.875 124.066C820.355 124.482 821.155 124.69 822.275 124.69H825.635V129.25H821.315C818.851 129.25 816.963 128.674 815.651 127.522C814.339 126.37 813.683 124.498 813.683 121.906V107.266H810.563V102.802H813.683V96.226H819.203V102.802H825.635V107.266H819.203ZM854.63 102.802V129.25H849.158V126.13C848.294 127.218 847.158 128.082 845.75 128.722C844.374 129.33 842.902 129.634 841.334 129.634C839.254 129.634 837.382 129.202 835.718 128.338C834.086 127.474 832.79 126.194 831.83 124.498C830.902 122.802 830.438 120.754 830.438 118.354V102.802H835.862V117.538C835.862 119.906 836.454 121.73 837.638 123.01C838.822 124.258 840.438 124.882 842.486 124.882C844.534 124.882 846.15 124.258 847.334 123.01C848.55 121.73 849.158 119.906 849.158 117.538V102.802H854.63ZM867.322 106.642C868.122 105.298 869.178 104.258 870.49 103.522C871.834 102.754 873.418 102.37 875.242 102.37V108.034H873.85C871.706 108.034 870.074 108.578 868.954 109.666C867.866 110.754 867.322 112.642 867.322 115.33V129.25H861.85V102.802H867.322V106.642ZM904.512 115.378C904.512 116.37 904.448 117.266 904.32 118.066H884.112C884.272 120.178 885.056 121.874 886.464 123.154C887.872 124.434 889.6 125.074 891.648 125.074C894.592 125.074 896.672 123.842 897.888 121.378H903.792C902.992 123.81 901.536 125.81 899.424 127.378C897.344 128.914 894.752 129.682 891.648 129.682C889.12 129.682 886.848 129.122 884.832 128.002C882.848 126.85 881.28 125.25 880.128 123.202C879.008 121.122 878.448 118.722 878.448 116.002C878.448 113.282 878.992 110.898 880.08 108.85C881.2 106.77 882.752 105.17 884.736 104.05C886.752 102.93 889.056 102.37 891.648 102.37C894.144 102.37 896.368 102.914 898.32 104.002C900.272 105.09 901.792 106.626 902.88 108.61C903.968 110.562 904.512 112.818 904.512 115.378ZM898.8 113.65C898.768 111.634 898.048 110.018 896.64 108.802C895.232 107.586 893.488 106.978 891.408 106.978C889.52 106.978 887.904 107.586 886.56 108.802C885.216 109.986 884.416 111.602 884.16 113.65H898.8ZM919.497 129.682C917.417 129.682 915.545 129.314 913.881 128.578C912.249 127.81 910.953 126.786 909.993 125.506C909.033 124.194 908.521 122.738 908.457 121.138H914.121C914.217 122.258 914.745 123.202 915.705 123.97C916.697 124.706 917.929 125.074 919.401 125.074C920.937 125.074 922.121 124.786 922.953 124.21C923.817 123.602 924.249 122.834 924.249 121.906C924.249 120.914 923.769 120.178 922.809 119.698C921.881 119.218 920.393 118.69 918.345 118.114C916.361 117.57 914.745 117.042 913.497 116.53C912.249 116.018 911.161 115.234 910.233 114.178C909.337 113.122 908.889 111.73 908.889 110.002C908.889 108.594 909.305 107.314 910.137 106.162C910.969 104.978 912.153 104.05 913.689 103.378C915.257 102.706 917.049 102.37 919.065 102.37C922.073 102.37 924.489 103.138 926.313 104.674C928.169 106.178 929.161 108.242 929.289 110.866H923.817C923.721 109.682 923.241 108.738 922.377 108.034C921.513 107.33 920.345 106.978 918.873 106.978C917.433 106.978 916.329 107.25 915.561 107.794C914.793 108.338 914.409 109.058 914.409 109.954C914.409 110.658 914.665 111.25 915.177 111.73C915.689 112.21 916.313 112.594 917.049 112.882C917.785 113.138 918.873 113.474 920.313 113.89C922.233 114.402 923.801 114.93 925.017 115.474C926.265 115.986 927.337 116.754 928.233 117.778C929.129 118.802 929.593 120.162 929.625 121.858C929.625 123.362 929.209 124.706 928.377 125.89C927.545 127.074 926.361 128.002 924.825 128.674C923.321 129.346 921.545 129.682 919.497 129.682ZM383.523 165.266V179.906C383.523 180.898 383.747 181.618 384.195 182.066C384.675 182.482 385.475 182.69 386.595 182.69H389.955V187.25H385.635C383.171 187.25 381.283 186.674 379.971 185.522C378.659 184.37 378.003 182.498 378.003 179.906V165.266H374.883V160.802H378.003V154.226H383.523V160.802H389.955V165.266H383.523ZM408.678 160.37C410.694 160.37 412.486 160.802 414.054 161.666C415.654 162.53 416.902 163.81 417.798 165.506C418.726 167.202 419.19 169.25 419.19 171.65V187.25H413.766V172.466C413.766 170.098 413.174 168.29 411.99 167.042C410.806 165.762 409.19 165.122 407.142 165.122C405.094 165.122 403.462 165.762 402.246 167.042C401.062 168.29 400.47 170.098 400.47 172.466V187.25H394.998V151.73H400.47V163.874C401.398 162.754 402.566 161.89 403.974 161.282C405.414 160.674 406.982 160.37 408.678 160.37ZM424.346 173.906C424.346 171.25 424.89 168.898 425.978 166.85C427.098 164.802 428.602 163.218 430.49 162.098C432.41 160.946 434.522 160.37 436.826 160.37C438.906 160.37 440.714 160.786 442.25 161.618C443.818 162.418 445.066 163.426 445.994 164.642V160.802H451.514V187.25H445.994V183.314C445.066 184.562 443.802 185.602 442.202 186.434C440.602 187.266 438.778 187.682 436.73 187.682C434.458 187.682 432.378 187.106 430.49 185.954C428.602 184.77 427.098 183.138 425.978 181.058C424.89 178.946 424.346 176.562 424.346 173.906ZM445.994 174.002C445.994 172.178 445.61 170.594 444.842 169.25C444.106 167.906 443.13 166.882 441.914 166.178C440.698 165.474 439.386 165.122 437.978 165.122C436.57 165.122 435.258 165.474 434.042 166.178C432.826 166.85 431.834 167.858 431.066 169.202C430.33 170.514 429.962 172.082 429.962 173.906C429.962 175.73 430.33 177.33 431.066 178.706C431.834 180.082 432.826 181.138 434.042 181.874C435.29 182.578 436.602 182.93 437.978 182.93C439.386 182.93 440.698 182.578 441.914 181.874C443.13 181.17 444.106 180.146 444.842 178.802C445.61 177.426 445.994 175.826 445.994 174.002ZM465.086 165.266V179.906C465.086 180.898 465.31 181.618 465.758 182.066C466.238 182.482 467.038 182.69 468.158 182.69H471.518V187.25H467.198C464.734 187.25 462.846 186.674 461.534 185.522C460.222 184.37 459.566 182.498 459.566 179.906V165.266H456.446V160.802H459.566V154.226H465.086V160.802H471.518V165.266H465.086ZM521.046 160.37C523.126 160.37 524.982 160.802 526.614 161.666C528.278 162.53 529.574 163.81 530.502 165.506C531.462 167.202 531.942 169.25 531.942 171.65V187.25H526.518V172.466C526.518 170.098 525.926 168.29 524.742 167.042C523.558 165.762 521.942 165.122 519.894 165.122C517.846 165.122 516.214 165.762 514.998 167.042C513.814 168.29 513.222 170.098 513.222 172.466V187.25H507.798V172.466C507.798 170.098 507.206 168.29 506.022 167.042C504.838 165.762 503.222 165.122 501.174 165.122C499.126 165.122 497.494 165.762 496.278 167.042C495.094 168.29 494.502 170.098 494.502 172.466V187.25H489.03V160.802H494.502V163.826C495.398 162.738 496.534 161.89 497.91 161.282C499.286 160.674 500.758 160.37 502.326 160.37C504.438 160.37 506.326 160.818 507.99 161.714C509.654 162.61 510.934 163.906 511.83 165.602C512.63 164.002 513.878 162.738 515.574 161.81C517.27 160.85 519.094 160.37 521.046 160.37ZM537.081 173.906C537.081 171.25 537.625 168.898 538.713 166.85C539.833 164.802 541.337 163.218 543.225 162.098C545.145 160.946 547.257 160.37 549.561 160.37C551.641 160.37 553.449 160.786 554.985 161.618C556.553 162.418 557.801 163.426 558.729 164.642V160.802H564.249V187.25H558.729V183.314C557.801 184.562 556.537 185.602 554.937 186.434C553.337 187.266 551.513 187.682 549.465 187.682C547.193 187.682 545.113 187.106 543.225 185.954C541.337 184.77 539.833 183.138 538.713 181.058C537.625 178.946 537.081 176.562 537.081 173.906ZM558.729 174.002C558.729 172.178 558.345 170.594 557.577 169.25C556.841 167.906 555.865 166.882 554.649 166.178C553.433 165.474 552.121 165.122 550.713 165.122C549.305 165.122 547.993 165.474 546.777 166.178C545.561 166.85 544.569 167.858 543.801 169.202C543.065 170.514 542.697 172.082 542.697 173.906C542.697 175.73 543.065 177.33 543.801 178.706C544.569 180.082 545.561 181.138 546.777 181.874C548.025 182.578 549.337 182.93 550.713 182.93C552.121 182.93 553.433 182.578 554.649 181.874C555.865 181.17 556.841 180.146 557.577 178.802C558.345 177.426 558.729 175.826 558.729 174.002ZM577.82 165.266V179.906C577.82 180.898 578.044 181.618 578.492 182.066C578.972 182.482 579.772 182.69 580.892 182.69H584.252V187.25H579.932C577.468 187.25 575.58 186.674 574.268 185.522C572.956 184.37 572.3 182.498 572.3 179.906V165.266H569.18V160.802H572.3V154.226H577.82V160.802H584.252V165.266H577.82ZM595.679 165.266V179.906C595.679 180.898 595.903 181.618 596.351 182.066C596.831 182.482 597.631 182.69 598.751 182.69H602.111V187.25H597.791C595.327 187.25 593.439 186.674 592.127 185.522C590.815 184.37 590.159 182.498 590.159 179.906V165.266H587.039V160.802H590.159V154.226H595.679V160.802H602.111V165.266H595.679ZM631.395 173.378C631.395 174.37 631.331 175.266 631.203 176.066H610.995C611.155 178.178 611.939 179.874 613.347 181.154C614.755 182.434 616.483 183.074 618.531 183.074C621.475 183.074 623.555 181.842 624.771 179.378H630.675C629.875 181.81 628.419 183.81 626.307 185.378C624.227 186.914 621.635 187.682 618.531 187.682C616.003 187.682 613.731 187.122 611.715 186.002C609.731 184.85 608.163 183.25 607.011 181.202C605.891 179.122 605.331 176.722 605.331 174.002C605.331 171.282 605.875 168.898 606.963 166.85C608.083 164.77 609.635 163.17 611.619 162.05C613.635 160.93 615.939 160.37 618.531 160.37C621.027 160.37 623.251 160.914 625.203 162.002C627.155 163.09 628.675 164.626 629.763 166.61C630.851 168.562 631.395 170.818 631.395 173.378ZM625.683 171.65C625.651 169.634 624.931 168.018 623.523 166.802C622.115 165.586 620.371 164.978 618.291 164.978C616.403 164.978 614.787 165.586 613.443 166.802C612.099 167.986 611.299 169.602 611.043 171.65H625.683ZM642.252 164.642C643.052 163.298 644.108 162.258 645.42 161.522C646.764 160.754 648.348 160.37 650.172 160.37V166.034H648.78C646.636 166.034 645.004 166.578 643.884 167.666C642.796 168.754 642.252 170.642 642.252 173.33V187.25H636.78V160.802H642.252V164.642ZM681.014 160.37C683.094 160.37 684.95 160.802 686.582 161.666C688.246 162.53 689.542 163.81 690.47 165.506C691.398 167.202 691.862 169.25 691.862 171.65V187.25H686.438V172.466C686.438 170.098 685.846 168.29 684.662 167.042C683.478 165.762 681.862 165.122 679.814 165.122C677.766 165.122 676.134 165.762 674.918 167.042C673.734 168.29 673.142 170.098 673.142 172.466V187.25H667.67V160.802H673.142V163.826C674.038 162.738 675.174 161.89 676.55 161.282C677.958 160.674 679.446 160.37 681.014 160.37ZM710.314 187.682C707.818 187.682 705.562 187.122 703.546 186.002C701.53 184.85 699.946 183.25 698.794 181.202C697.642 179.122 697.066 176.722 697.066 174.002C697.066 171.314 697.658 168.93 698.842 166.85C700.026 164.77 701.642 163.17 703.69 162.05C705.738 160.93 708.026 160.37 710.554 160.37C713.082 160.37 715.37 160.93 717.418 162.05C719.466 163.17 721.082 164.77 722.266 166.85C723.45 168.93 724.042 171.314 724.042 174.002C724.042 176.69 723.434 179.074 722.218 181.154C721.002 183.234 719.338 184.85 717.226 186.002C715.146 187.122 712.842 187.682 710.314 187.682ZM710.314 182.93C711.722 182.93 713.034 182.594 714.25 181.922C715.498 181.25 716.506 180.242 717.274 178.898C718.042 177.554 718.426 175.922 718.426 174.002C718.426 172.082 718.058 170.466 717.322 169.154C716.586 167.81 715.61 166.802 714.394 166.13C713.178 165.458 711.866 165.122 710.458 165.122C709.05 165.122 707.738 165.458 706.522 166.13C705.338 166.802 704.394 167.81 703.69 169.154C702.986 170.466 702.634 172.082 702.634 174.002C702.634 176.85 703.354 179.058 704.794 180.626C706.266 182.162 708.106 182.93 710.314 182.93ZM764.972 160.802L756.764 187.25H751.004L745.676 167.714L740.348 187.25H734.588L726.332 160.802H731.9L737.42 182.066L743.036 160.802H748.748L754.124 181.97L759.596 160.802H764.972Z" fill="#212121"/>
<rect x="485.5" y="250.75" width="168" height="44" rx="22" fill="#FF6A00"/>
<path d="M523.829 272.99C524.48 273.129 525.003 273.454 525.397 273.966C525.792 274.467 525.989 275.043 525.989 275.694C525.989 276.633 525.659 277.379 524.997 277.934C524.347 278.478 523.435 278.75 522.261 278.75H517.029V267.518H522.085C523.227 267.518 524.117 267.779 524.757 268.302C525.408 268.825 525.733 269.534 525.733 270.43C525.733 271.091 525.557 271.641 525.205 272.078C524.864 272.515 524.405 272.819 523.829 272.99ZM519.765 272.062H521.557C522.005 272.062 522.347 271.966 522.581 271.774C522.827 271.571 522.949 271.278 522.949 270.894C522.949 270.51 522.827 270.217 522.581 270.014C522.347 269.811 522.005 269.71 521.557 269.71H519.765V272.062ZM521.781 276.542C522.24 276.542 522.592 276.441 522.837 276.238C523.093 276.025 523.221 275.721 523.221 275.326C523.221 274.931 523.088 274.622 522.821 274.398C522.565 274.174 522.208 274.062 521.749 274.062H519.765V276.542H521.781ZM532.12 278.878C531.246 278.878 530.456 278.691 529.752 278.318C529.059 277.945 528.51 277.411 528.104 276.718C527.71 276.025 527.512 275.214 527.512 274.286C527.512 273.369 527.715 272.563 528.12 271.87C528.526 271.166 529.08 270.627 529.784 270.254C530.488 269.881 531.278 269.694 532.152 269.694C533.027 269.694 533.816 269.881 534.52 270.254C535.224 270.627 535.779 271.166 536.184 271.87C536.59 272.563 536.792 273.369 536.792 274.286C536.792 275.203 536.584 276.014 536.168 276.718C535.763 277.411 535.203 277.945 534.488 278.318C533.784 278.691 532.995 278.878 532.12 278.878ZM532.12 276.51C532.643 276.51 533.086 276.318 533.448 275.934C533.822 275.55 534.008 275.001 534.008 274.286C534.008 273.571 533.827 273.022 533.464 272.638C533.112 272.254 532.675 272.062 532.152 272.062C531.619 272.062 531.176 272.254 530.824 272.638C530.472 273.011 530.296 273.561 530.296 274.286C530.296 275.001 530.467 275.55 530.808 275.934C531.16 276.318 531.598 276.51 532.12 276.51ZM542.788 278.878C541.913 278.878 541.124 278.691 540.42 278.318C539.727 277.945 539.177 277.411 538.772 276.718C538.377 276.025 538.18 275.214 538.18 274.286C538.18 273.369 538.383 272.563 538.788 271.87C539.193 271.166 539.748 270.627 540.452 270.254C541.156 269.881 541.945 269.694 542.82 269.694C543.695 269.694 544.484 269.881 545.188 270.254C545.892 270.627 546.447 271.166 546.852 271.87C547.257 272.563 547.46 273.369 547.46 274.286C547.46 275.203 547.252 276.014 546.836 276.718C546.431 277.411 545.871 277.945 545.156 278.318C544.452 278.691 543.663 278.878 542.788 278.878ZM542.788 276.51C543.311 276.51 543.753 276.318 544.116 275.934C544.489 275.55 544.676 275.001 544.676 274.286C544.676 273.571 544.495 273.022 544.132 272.638C543.78 272.254 543.343 272.062 542.82 272.062C542.287 272.062 541.844 272.254 541.492 272.638C541.14 273.011 540.964 273.561 540.964 274.286C540.964 275.001 541.135 275.55 541.476 275.934C541.828 276.318 542.265 276.51 542.788 276.51ZM554.847 278.75L552.127 275.006V278.75H549.391V266.91H552.127V273.454L554.831 269.822H558.207L554.495 274.302L558.239 278.75H554.847ZM572.449 269.822V278.75H569.713V277.534C569.435 277.929 569.057 278.249 568.577 278.494C568.107 278.729 567.585 278.846 567.009 278.846C566.326 278.846 565.723 278.697 565.201 278.398C564.678 278.089 564.273 277.646 563.985 277.07C563.697 276.494 563.553 275.817 563.553 275.038V269.822H566.273V274.67C566.273 275.267 566.427 275.731 566.737 276.062C567.046 276.393 567.462 276.558 567.985 276.558C568.518 276.558 568.939 276.393 569.249 276.062C569.558 275.731 569.713 275.267 569.713 274.67V269.822H572.449ZM578.526 278.878C577.747 278.878 577.054 278.745 576.446 278.478C575.838 278.211 575.358 277.849 575.006 277.39C574.654 276.921 574.457 276.398 574.414 275.822H577.118C577.15 276.131 577.294 276.382 577.55 276.574C577.806 276.766 578.121 276.862 578.494 276.862C578.835 276.862 579.097 276.798 579.278 276.67C579.47 276.531 579.566 276.355 579.566 276.142C579.566 275.886 579.433 275.699 579.166 275.582C578.899 275.454 578.467 275.315 577.87 275.166C577.23 275.017 576.697 274.862 576.27 274.702C575.843 274.531 575.475 274.27 575.166 273.918C574.857 273.555 574.702 273.07 574.702 272.462C574.702 271.95 574.841 271.486 575.118 271.07C575.406 270.643 575.822 270.307 576.366 270.062C576.921 269.817 577.577 269.694 578.334 269.694C579.454 269.694 580.334 269.971 580.974 270.526C581.625 271.081 581.998 271.817 582.094 272.734H579.566C579.523 272.425 579.385 272.179 579.15 271.998C578.926 271.817 578.627 271.726 578.254 271.726C577.934 271.726 577.689 271.79 577.518 271.918C577.347 272.035 577.262 272.201 577.262 272.414C577.262 272.67 577.395 272.862 577.662 272.99C577.939 273.118 578.366 273.246 578.942 273.374C579.603 273.545 580.142 273.715 580.558 273.886C580.974 274.046 581.337 274.313 581.646 274.686C581.966 275.049 582.131 275.539 582.142 276.158C582.142 276.681 581.993 277.15 581.694 277.566C581.406 277.971 580.985 278.291 580.43 278.526C579.886 278.761 579.251 278.878 578.526 278.878ZM593.606 269.726C594.652 269.726 595.484 270.067 596.102 270.75C596.732 271.422 597.046 272.35 597.046 273.534V278.75H594.326V273.902C594.326 273.305 594.172 272.841 593.862 272.51C593.553 272.179 593.137 272.014 592.614 272.014C592.092 272.014 591.676 272.179 591.366 272.51C591.057 272.841 590.902 273.305 590.902 273.902V278.75H588.166V269.822H590.902V271.006C591.18 270.611 591.553 270.302 592.022 270.078C592.492 269.843 593.02 269.726 593.606 269.726ZM603.492 278.878C602.617 278.878 601.828 278.691 601.124 278.318C600.43 277.945 599.881 277.411 599.476 276.718C599.081 276.025 598.884 275.214 598.884 274.286C598.884 273.369 599.086 272.563 599.492 271.87C599.897 271.166 600.452 270.627 601.156 270.254C601.86 269.881 602.649 269.694 603.524 269.694C604.398 269.694 605.188 269.881 605.892 270.254C606.596 270.627 607.15 271.166 607.556 271.87C607.961 272.563 608.164 273.369 608.164 274.286C608.164 275.203 607.956 276.014 607.54 276.718C607.134 277.411 606.574 277.945 605.86 278.318C605.156 278.691 604.366 278.878 603.492 278.878ZM603.492 276.51C604.014 276.51 604.457 276.318 604.82 275.934C605.193 275.55 605.38 275.001 605.38 274.286C605.38 273.571 605.198 273.022 604.836 272.638C604.484 272.254 604.046 272.062 603.524 272.062C602.99 272.062 602.548 272.254 602.196 272.638C601.844 273.011 601.668 273.561 601.668 274.286C601.668 275.001 601.838 275.55 602.18 275.934C602.532 276.318 602.969 276.51 603.492 276.51ZM622.911 269.822L620.495 278.75H617.471L616.063 272.958L614.607 278.75H611.599L609.167 269.822H611.903L613.167 276.206L614.671 269.822H617.567L619.087 276.174L620.335 269.822H622.911Z" fill="white"/>
</g>
<defs>
<clipPath id="clip0_50_390">
<rect width="1139" height="377.5" rx="16" fill="white"/>
</clipPath>
</defs>
</svg>
