<svg width="196" height="126" viewBox="0 0 196 126" fill="none" xmlns="http://www.w3.org/2000/svg">
<circle opacity="0.1" cx="3.5" cy="3.5" r="3.5" fill="#213D39"/>
<circle opacity="0.1" cx="3.5" cy="20.5" r="3.5" fill="#213D39"/>
<circle opacity="0.1" cx="3.5" cy="37.5" r="3.5" fill="#213D39"/>
<circle opacity="0.1" cx="3.5" cy="54.5" r="3.5" fill="#213D39"/>
<circle opacity="0.1" cx="3.5" cy="71.5" r="3.5" fill="#213D39"/>
<circle opacity="0.1" cx="3.5" cy="88.5" r="3.5" fill="#213D39"/>
<circle opacity="0.1" cx="3.5" cy="105.5" r="3.5" fill="#213D39"/>
<circle opacity="0.1" cx="3.5" cy="122.5" r="3.5" fill="#213D39"/>
<circle opacity="0.1" cx="24.5" cy="3.5" r="3.5" fill="#213D39"/>
<circle opacity="0.1" cx="24.5" cy="20.5" r="3.5" fill="#213D39"/>
<circle opacity="0.1" cx="24.5" cy="37.5" r="3.5" fill="#213D39"/>
<circle opacity="0.1" cx="24.5" cy="54.5" r="3.5" fill="#213D39"/>
<circle opacity="0.1" cx="24.5" cy="71.5" r="3.5" fill="#213D39"/>
<circle opacity="0.1" cx="24.5" cy="88.5" r="3.5" fill="#213D39"/>
<circle opacity="0.1" cx="24.5" cy="105.5" r="3.5" fill="#213D39"/>
<circle opacity="0.1" cx="24.5" cy="122.5" r="3.5" fill="#213D39"/>
<circle opacity="0.1" cx="45.5" cy="3.5" r="3.5" fill="#213D39"/>
<circle opacity="0.1" cx="45.5" cy="20.5" r="3.5" fill="#213D39"/>
<circle opacity="0.1" cx="45.5" cy="37.5" r="3.5" fill="#213D39"/>
<circle opacity="0.1" cx="45.5" cy="54.5" r="3.5" fill="#213D39"/>
<circle opacity="0.1" cx="45.5" cy="71.5" r="3.5" fill="#213D39"/>
<circle opacity="0.1" cx="45.5" cy="88.5" r="3.5" fill="#213D39"/>
<circle opacity="0.1" cx="45.5" cy="105.5" r="3.5" fill="#213D39"/>
<circle opacity="0.1" cx="45.5" cy="122.5" r="3.5" fill="#213D39"/>
<circle opacity="0.1" cx="66.5" cy="3.5" r="3.5" fill="#213D39"/>
<circle opacity="0.1" cx="66.5" cy="20.5" r="3.5" fill="#213D39"/>
<circle opacity="0.1" cx="66.5" cy="37.5" r="3.5" fill="#213D39"/>
<circle opacity="0.1" cx="66.5" cy="54.5" r="3.5" fill="#213D39"/>
<circle opacity="0.1" cx="66.5" cy="71.5" r="3.5" fill="#213D39"/>
<circle opacity="0.1" cx="66.5" cy="88.5" r="3.5" fill="#213D39"/>
<circle opacity="0.1" cx="66.5" cy="105.5" r="3.5" fill="#213D39"/>
<circle opacity="0.1" cx="66.5" cy="122.5" r="3.5" fill="#213D39"/>
<circle opacity="0.1" cx="87.5" cy="3.5" r="3.5" fill="#213D39"/>
<circle opacity="0.1" cx="87.5" cy="20.5" r="3.5" fill="#213D39"/>
<circle opacity="0.1" cx="87.5" cy="37.5" r="3.5" fill="#213D39"/>
<circle opacity="0.1" cx="87.5" cy="54.5" r="3.5" fill="#213D39"/>
<circle opacity="0.1" cx="87.5" cy="71.5" r="3.5" fill="#213D39"/>
<circle opacity="0.1" cx="87.5" cy="88.5" r="3.5" fill="#213D39"/>
<circle opacity="0.1" cx="87.5" cy="105.5" r="3.5" fill="#213D39"/>
<circle opacity="0.1" cx="87.5" cy="122.5" r="3.5" fill="#213D39"/>
<circle opacity="0.1" cx="108.5" cy="3.5" r="3.5" fill="#213D39"/>
<circle opacity="0.1" cx="108.5" cy="20.5" r="3.5" fill="#213D39"/>
<circle opacity="0.1" cx="108.5" cy="37.5" r="3.5" fill="#213D39"/>
<circle opacity="0.1" cx="108.5" cy="54.5" r="3.5" fill="#213D39"/>
<circle opacity="0.1" cx="108.5" cy="71.5" r="3.5" fill="#213D39"/>
<circle opacity="0.1" cx="108.5" cy="88.5" r="3.5" fill="#213D39"/>
<circle opacity="0.1" cx="108.5" cy="105.5" r="3.5" fill="#213D39"/>
<circle opacity="0.1" cx="108.5" cy="122.5" r="3.5" fill="#213D39"/>
<circle opacity="0.1" cx="129.5" cy="3.5" r="3.5" fill="#213D39"/>
<circle opacity="0.1" cx="129.5" cy="20.5" r="3.5" fill="#213D39"/>
<circle opacity="0.1" cx="129.5" cy="37.5" r="3.5" fill="#213D39"/>
<circle opacity="0.1" cx="129.5" cy="54.5" r="3.5" fill="#213D39"/>
<circle opacity="0.1" cx="129.5" cy="71.5" r="3.5" fill="#213D39"/>
<circle opacity="0.1" cx="129.5" cy="88.5" r="3.5" fill="#213D39"/>
<circle opacity="0.1" cx="129.5" cy="105.5" r="3.5" fill="#213D39"/>
<circle opacity="0.1" cx="129.5" cy="122.5" r="3.5" fill="#213D39"/>
<circle opacity="0.1" cx="150.5" cy="3.5" r="3.5" fill="#213D39"/>
<circle opacity="0.1" cx="150.5" cy="20.5" r="3.5" fill="#213D39"/>
<circle opacity="0.1" cx="150.5" cy="37.5" r="3.5" fill="#213D39"/>
<circle opacity="0.1" cx="150.5" cy="54.5" r="3.5" fill="#213D39"/>
<circle opacity="0.1" cx="150.5" cy="71.5" r="3.5" fill="#213D39"/>
<circle opacity="0.1" cx="150.5" cy="88.5" r="3.5" fill="#213D39"/>
<circle opacity="0.1" cx="150.5" cy="105.5" r="3.5" fill="#213D39"/>
<circle opacity="0.1" cx="150.5" cy="122.5" r="3.5" fill="#213D39"/>
<circle opacity="0.1" cx="171.5" cy="3.5" r="3.5" fill="#213D39"/>
<circle opacity="0.1" cx="171.5" cy="20.5" r="3.5" fill="#213D39"/>
<circle opacity="0.1" cx="171.5" cy="37.5" r="3.5" fill="#213D39"/>
<circle opacity="0.1" cx="171.5" cy="54.5" r="3.5" fill="#213D39"/>
<circle opacity="0.1" cx="171.5" cy="71.5" r="3.5" fill="#213D39"/>
<circle opacity="0.1" cx="171.5" cy="88.5" r="3.5" fill="#213D39"/>
<circle opacity="0.1" cx="171.5" cy="105.5" r="3.5" fill="#213D39"/>
<circle opacity="0.1" cx="171.5" cy="122.5" r="3.5" fill="#213D39"/>
<circle opacity="0.1" cx="192.5" cy="3.5" r="3.5" fill="#213D39"/>
<circle opacity="0.1" cx="192.5" cy="20.5" r="3.5" fill="#213D39"/>
<circle opacity="0.1" cx="192.5" cy="37.5" r="3.5" fill="#213D39"/>
<circle opacity="0.1" cx="192.5" cy="54.5" r="3.5" fill="#213D39"/>
<circle opacity="0.1" cx="192.5" cy="71.5" r="3.5" fill="#213D39"/>
<circle opacity="0.1" cx="192.5" cy="88.5" r="3.5" fill="#213D39"/>
<circle opacity="0.1" cx="192.5" cy="105.5" r="3.5" fill="#213D39"/>
<circle opacity="0.1" cx="192.5" cy="122.5" r="3.5" fill="#213D39"/>
</svg>
