<svg width="40" height="35" viewBox="0 0 40 35" fill="none" xmlns="http://www.w3.org/2000/svg">
<ellipse cx="19.9153" cy="17.6835" rx="18.8475" ry="16.6835" stroke="#0A0F0D" stroke-opacity="0.8"/>
<path d="M21.0377 9.66797C22.5455 9.67148 22.8828 9.6829 23.6734 9.71539C25.1068 9.77422 26.3656 10.0886 27.3754 10.9947C28.3853 11.9009 28.7364 13.0293 28.8019 14.3139C28.8386 15.0278 28.8515 15.3307 28.8545 16.7075V18.4409C28.8505 19.8177 28.8386 20.1198 28.8019 20.8337C28.7364 22.1192 28.3853 23.2484 27.3754 24.1537C26.3646 25.0599 25.1058 25.3742 23.6734 25.433C22.733 25.4717 22.4334 25.4805 20.0388 25.4805H19.761C17.6184 25.4805 17.3069 25.4699 16.4032 25.433C14.9698 25.3742 13.712 25.0599 12.7022 24.1537C11.6914 23.2475 11.3412 22.1192 11.2747 20.8345C11.239 20.1198 11.2261 19.8177 11.2231 18.4409V16.7075C11.2261 15.3298 11.239 15.0278 11.2747 14.3139C11.3412 13.0293 11.6914 11.9001 12.7022 10.9947C13.712 10.0877 14.9708 9.77422 16.4032 9.71539C17.1938 9.6829 17.5321 9.67148 19.0389 9.66797H21.0377ZM20.8006 11.0922H19.276C17.6085 11.0949 17.294 11.1045 16.4766 11.1379C15.4728 11.1791 14.5423 11.3592 13.8251 12.0019C13.1089 12.6447 12.9075 13.4797 12.8629 14.3798C12.8252 15.113 12.8133 15.3948 12.8113 16.8911V18.2582C12.8133 19.7536 12.8252 20.0355 12.8619 20.7696C12.9075 21.6687 13.1099 22.5038 13.8251 23.1465C14.5413 23.7884 15.4728 23.9693 16.4766 24.0097C17.294 24.043 17.6075 24.0536 19.276 24.0553H20.8006C22.4691 24.0536 22.7826 24.043 23.601 24.0097C24.6039 23.9693 25.5353 23.7884 26.2515 23.1465C26.9677 22.5038 27.1691 21.6687 27.2147 20.7687C27.2524 20.0355 27.2643 19.7536 27.2653 18.2574V16.8911C27.2633 15.3957 27.2524 15.1138 27.2157 14.3798C27.1691 13.4806 26.9677 12.6455 26.2515 12.0028C25.5353 11.36 24.6048 11.18 23.601 11.1388C22.7826 11.1054 22.4691 11.0949 20.8006 11.0931V11.0922ZM20.0388 13.514C22.5386 13.514 24.5652 15.3316 24.5652 17.5742C24.5652 19.816 22.5386 21.6336 20.0388 21.6336C17.539 21.6336 15.5114 19.816 15.5114 17.5742C15.5114 15.3325 17.538 13.514 20.0388 13.514V13.514ZM20.0388 14.9391C18.4159 14.9391 17.0996 16.1184 17.0996 17.5733C17.0996 19.0292 18.4149 20.2093 20.0388 20.2093C21.6617 20.2093 22.977 19.0301 22.977 17.5742C22.977 16.1184 21.6627 14.9391 20.0388 14.9391V14.9391ZM24.7447 12.4049C25.329 12.4049 25.8031 12.8291 25.8031 13.3533C25.8031 13.8775 25.329 14.3016 24.7447 14.3016C24.4625 14.2997 24.1927 14.1988 23.9944 14.0211C23.7961 13.8433 23.6857 13.6031 23.6873 13.3533C23.6873 12.8291 24.1604 12.4049 24.7447 12.4049Z" fill="#0A0F0D" fill-opacity="0.8"/>
</svg>
