<svg width="39" height="34" viewBox="0 0 39 34" fill="none" xmlns="http://www.w3.org/2000/svg">
<ellipse cx="19.7967" cy="16.6835" rx="18.8475" ry="16.6835" fill="#0A0F0D"/>
<path d="M14.6443 24.7551H11.0054V14.2311H14.6443V24.7551ZM12.85 12.8063C11.6726 12.8063 10.7504 11.98 10.7504 10.9233C10.7504 9.8667 11.6714 9.03809 12.8512 9.03809C14.0298 9.03809 14.9521 9.86559 14.9521 10.9222C14.9521 11.9344 14.0298 12.8063 12.8512 12.8063H12.85ZM28.3275 24.7551H24.6887V19.6544C24.6887 18.4131 24.6887 16.8516 22.7914 16.8516C20.8966 16.8516 20.5887 18.184 20.5887 19.5621V24.7562H16.9499V14.23H20.4355V15.6548H20.4857C20.9481 14.8273 22.177 13.9542 23.9197 13.9542C27.6101 13.9542 28.276 16.1141 28.276 18.9637V24.754H28.3263L28.3275 24.7551Z" fill="#EBFFDB"/>
</svg>
