<svg width="40" height="35" viewBox="0 0 40 35" fill="none" xmlns="http://www.w3.org/2000/svg">
<ellipse cx="20.034" cy="17.6835" rx="18.8475" ry="16.6835" stroke="#0A0F0D" stroke-opacity="0.8"/>
<path d="M30.9207 12.0399C30.1534 12.3248 29.3564 12.5524 28.5271 12.6382C29.4091 12.1663 30.0674 11.4269 30.3795 10.5575C29.5629 10.9944 28.667 11.3028 27.7315 11.4691C27.3353 11.0926 26.8562 10.7921 26.3236 10.5861C25.791 10.3801 25.2163 10.273 24.6351 10.2715C22.3061 10.2715 20.4564 11.9541 20.4564 14.0062C20.4564 14.2922 20.4873 14.577 20.5506 14.8618C17.0746 14.7188 13.9796 13.2078 11.9373 10.9567C11.5656 11.5291 11.368 12.177 11.3638 12.8372C11.3638 14.148 12.0975 15.2897 13.2135 15.9451C12.5556 15.919 11.9126 15.7631 11.3315 15.4887V15.5459C11.3315 17.3691 12.7666 18.8814 14.6809 19.2234C14.3173 19.3148 13.9415 19.3629 13.5636 19.3664C13.3091 19.3664 13.0224 19.3366 12.7666 19.3092C13.0326 20.0502 13.5541 20.6988 14.258 21.1639C14.9619 21.629 15.8127 21.8873 16.6909 21.9023C15.2083 22.935 13.3769 23.4973 11.4903 23.4992C11.1601 23.4952 10.8302 23.4761 10.5022 23.442C12.4213 24.5161 14.6438 25.0894 16.9144 25.096C24.6351 25.096 28.8462 19.3938 28.8462 14.434V13.949C29.6545 13.4213 30.3556 12.7758 30.9194 12.0399H30.9207Z" fill="#0A0F0D" fill-opacity="0.8"/>
</svg>
