<svg width="33" height="34" viewBox="0 0 33 34" fill="none" xmlns="http://www.w3.org/2000/svg">
<circle cx="28.5" cy="4.5" r="4.5" fill="black"/>
<g clip-path="url(#clip0_159_42)">
<circle cx="12.5" cy="21.5" r="12.5" fill="#CECECE"/>
<path d="M8.2 27C7.87 27 7.5876 26.8826 7.3528 26.6478C7.1176 26.4126 7 26.13 7 25.8V18.6C7 18.27 7.1176 17.9876 7.3528 17.7528C7.5876 17.5176 7.87 17.4 8.2 17.4H10.09L11.2 16.2H14.8V17.4H11.725L10.63 18.6H8.2V25.8H17.8V19.2H19V25.8C19 26.13 18.8826 26.4126 18.6478 26.6478C18.4126 26.8826 18.13 27 17.8 27H8.2ZM18.19 18.6C18.19 17.82 17.92 17.16 17.38 16.62C16.84 16.08 16.18 15.81 15.4 15.81V15C16.4 15 17.25 15.35 17.95 16.05C18.65 16.75 19 17.6 19 18.6H18.19ZM16.6 18.6C16.6 18.27 16.4826 17.9876 16.2478 17.7528C16.0126 17.5176 15.73 17.4 15.4 17.4V16.59C15.95 16.59 16.4174 16.785 16.8022 17.175C17.1874 17.565 17.39 18.04 17.41 18.6H16.6ZM13 24.9C13.75 24.9 14.3876 24.6376 14.9128 24.1128C15.4376 23.5876 15.7 22.95 15.7 22.2C15.7 21.45 15.4376 20.8124 14.9128 20.2872C14.3876 19.7624 13.75 19.5 13 19.5C12.25 19.5 11.6124 19.7624 11.0872 20.2872C10.5624 20.8124 10.3 21.45 10.3 22.2C10.3 22.95 10.5624 23.5876 11.0872 24.1128C11.6124 24.6376 12.25 24.9 13 24.9ZM13 23.7C12.58 23.7 12.225 23.555 11.935 23.265C11.645 22.975 11.5 22.62 11.5 22.2C11.5 21.78 11.645 21.425 11.935 21.135C12.225 20.845 12.58 20.7 13 20.7C13.42 20.7 13.775 20.845 14.065 21.135C14.355 21.425 14.5 21.78 14.5 22.2C14.5 22.62 14.355 22.975 14.065 23.265C13.775 23.555 13.42 23.7 13 23.7Z" fill="black"/>
</g>
<defs>
<clipPath id="clip0_159_42">
<rect width="25" height="25" fill="white" transform="translate(0 9)"/>
</clipPath>
</defs>
</svg>
